<svg xmlns="http://www.w3.org/2000/svg" viewBox="0 0 180 120">
  <defs>
    <linearGradient id="bow" x1="0" y1="0" x2="0" y2="1">
      <stop offset="0%" stop-color="#ff7b93"/>
      <stop offset="100%" stop-color="#e83d67"/>
    </linearGradient>
  </defs>
  <path d="M32 60c0-21 18-36 41-36 15 0 27 6 36 17-6 9-12 18-16 29 3 11 10 21 16 31-9 11-21 17-36 17-23 0-41-15-41-36 0-8 3-15 8-22-5-7-8-14-8-22Z" fill="url(#bow)"/>
  <path d="M148 60c0-21-18-36-41-36-15 0-27 6-36 17 6 9 12 18 16 29-3 11-10 21-16 31 9 11 21 17 36 17 23 0 41-15 41-36 0-8-3-15-8-22 5-7 8-14 8-22Z" fill="url(#bow)"/>
  <rect x="72" y="38" width="36" height="44" rx="15" fill="#ffca58"/>
  <path d="m54 49 28 12-28 13" fill="#ffb9c4" opacity=".55"/>
  <path d="m126 49-28 12 28 13" fill="#ffb9c4" opacity=".55"/>
</svg>
